<svg xmlns="http://www.w3.org/2000/svg" viewBox="0 0 500 450" width="100%" height="100%">
  <defs>
    <linearGradient id="chartGradient" x1="0" y1="0" x2="0" y2="1">
      <stop offset="0%" stop-color="#3B82F6" stop-opacity="0.4"/>
      <stop offset="100%" stop-color="#3B82F6" stop-opacity="0.0"/>
    </linearGradient>

    <filter id="tooltipShadow" x="-20%" y="-20%" width="140%" height="140%">
      <feDropShadow dx="0" dy="4" stdDeviation="4" flood-color="#3B82F6" flood-opacity="0.25"/>
    </filter>

    <filter id="containerShadow" x="-10%" y="-10%" width="120%" height="120%">
      <feDropShadow dx="0" dy="10" stdDeviation="15" flood-color="#000000" flood-opacity="0.05"/>
    </filter>
  </defs>
  <rect x="20" y="20" width="460" height="410" rx="32" fill="#FFFFFF" filter="url(#containerShadow)"/>
  <text x="60" y="75" font-family="-apple-system, BlinkMacSystemFont, 'Segoe UI', Roboto, Helvetica, Arial, sans-serif" font-size="16" font-weight="500" fill="#718096">Budget</text>
  <text x="60" y="125" font-family="-apple-system, BlinkMacSystemFont, 'Segoe UI', Roboto, Helvetica, Arial, sans-serif" font-size="40" font-weight="700" fill="#1A202C">$30.739</text>
  <g transform="translate(60, 145)">
    <rect x="0" y="0" width="85" height="28" rx="14" fill="#F7FAFC" stroke="#E2E8F0" stroke-width="1"/>
    <text x="12" y="18" font-family="-apple-system, BlinkMacSystemFont, 'Segoe UI', Roboto, Helvetica, Arial, sans-serif" font-size="13" font-weight="600" fill="#2D3748">+ $317</text>
    <path d="M64 12 L70 12 L70 18 M70 12 L62 20 L58 16 L52 22" stroke="#2D3748" stroke-width="1.5" stroke-linecap="round" stroke-linejoin="round" fill="none"/>
  </g>
  <g stroke="#EDF2F7" stroke-width="1" stroke-dasharray="0">
    <line x1="60" y1="230" x2="60" y2="350"/>
    <line x1="120" y1="230" x2="120" y2="350"/>
    <line x1="180" y1="230" x2="180" y2="350"/>
    <line x1="240" y1="230" x2="240" y2="350"/>
    <line x1="300" y1="230" x2="300" y2="350"/>
    <line x1="360" y1="230" x2="360" y2="350"/>
    <line x1="420" y1="230" x2="420" y2="350"/>
  </g>
  <g fill="#3B82F6" opacity="0.3">
    <circle cx="130" cy="290" r="1.5"/>
    <circle cx="150" cy="275" r="2"/>
    <circle cx="160" cy="305" r="1.5"/>
    <circle cx="210" cy="265" r="2"/>
    <circle cx="220" cy="295" r="1.5"/>
    <circle cx="255" cy="250" r="2"/>
    <circle cx="260" cy="280" r="1.5"/>
    <circle cx="275" cy="260" r="2"/>
    <circle cx="280" cy="300" r="1.5"/>
    <circle cx="330" cy="245" r="2"/>
    <circle cx="340" cy="270" r="1.5"/>
  </g>
  <path d="M 60 310
           L 120 270
           L 180 270
           L 240 230
           L 300 250
           L 360 255
           L 420 195
           L 420 350
           L 60 350 Z" fill="url(#chartGradient)"/>
  <path d="M 60 310
           L 120 270
           L 180 270
           L 240 230
           L 300 250
           L 360 255
           L 420 195" fill="none" stroke="#2563EB" stroke-width="3" stroke-linecap="round" stroke-linejoin="round"/>
  <circle cx="240" cy="230" r="7" fill="#2563EB"/>
  <circle cx="240" cy="230" r="4" fill="#FFFFFF"/>
  <g transform="translate(240, 230)" filter="url(#tooltipShadow)">
    <path d="M -30 -50
             H 30
             A 8 8 0 0 1 38 -42
             V -22
             A 8 8 0 0 1 30 -14
             H 5
             L 0 -8
             L -5 -14
             H -30
             A 8 8 0 0 1 -38 -22
             V -42
             A 8 8 0 0 1 -30 -50 Z" fill="#4F46E5"/>
    <text x="0" y="-27" font-family="-apple-system, BlinkMacSystemFont, 'Segoe UI', Roboto, Helvetica, Arial, sans-serif" font-size="13" font-weight="600" fill="#FFFFFF" text-anchor="middle">$750</text>
  </g>
  <g font-family="-apple-system, BlinkMacSystemFont, 'Segoe UI', Roboto, Helvetica, Arial, sans-serif" font-size="12" font-weight="500" fill="#A0AEC0" text-anchor="middle">
    <text x="60" y="380">Sun</text>
    <text x="120" y="380">Mon</text>
    <text x="180" y="380">Tue</text>
    <text x="240" y="380">Wed</text>
    <text x="300" y="380">Thu</text>
    <text x="360" y="380">Fri</text>
    <text x="420" y="380">Sat</text>
  </g>
</svg>
