<svg width="726" height="561" viewBox="0 0 726 561" fill="none" xmlns="http://www.w3.org/2000/svg">
<g clip-path="url(#clip0_43_9724)">
<rect width="726" height="561" rx="38" fill="url(#paint0_linear_43_9724)"/>
<g filter="url(#filter0_f_43_9724)">
<ellipse cx="665.5" cy="314" rx="373.5" ry="343" fill="#ABBBC1" fill-opacity="0.53"/>
<path d="M665.5 -21C868.015 -21 1031 129.613 1031 314C1031 498.387 868.015 649 665.5 649C462.985 649 300 498.387 300 314C300 129.613 462.985 -21 665.5 -21Z" stroke="#C7FAFF" stroke-width="16"/>
</g>
<g filter="url(#filter1_f_43_9724)">
<ellipse cx="881" cy="362.5" rx="393" ry="324.5" fill="#D2D7D4"/>
<path d="M881 46C1095.13 46 1266 189.067 1266 362.5C1266 535.933 1095.13 679 881 679C666.868 679 496 535.933 496 362.5C496 189.067 666.868 46 881 46Z" stroke="#FFDCF3" stroke-width="16"/>
</g>
</g>
<defs>
<filter id="filter0_f_43_9724" x="227.4" y="-93.6" width="876.2" height="815.2" filterUnits="userSpaceOnUse" color-interpolation-filters="sRGB">
<feFlood flood-opacity="0" result="BackgroundImageFix"/>
<feBlend mode="normal" in="SourceGraphic" in2="BackgroundImageFix" result="shape"/>
<feGaussianBlur stdDeviation="32.3" result="effect1_foregroundBlur_43_9724"/>
</filter>
<filter id="filter1_f_43_9724" x="423.4" y="-26.6" width="915.2" height="778.2" filterUnits="userSpaceOnUse" color-interpolation-filters="sRGB">
<feFlood flood-opacity="0" result="BackgroundImageFix"/>
<feBlend mode="normal" in="SourceGraphic" in2="BackgroundImageFix" result="shape"/>
<feGaussianBlur stdDeviation="32.3" result="effect1_foregroundBlur_43_9724"/>
</filter>
<linearGradient id="paint0_linear_43_9724" x1="124.5" y1="67" x2="783.5" y2="602" gradientUnits="userSpaceOnUse">
<stop stop-color="#C1C1C1"/>
<stop offset="1" stop-color="#FFD8E2"/>
</linearGradient>
<clipPath id="clip0_43_9724">
<rect width="726" height="561" rx="38" fill="white"/>
</clipPath>
</defs>
</svg>
